<?xml version="1.0" standalone="no"?>
<!DOCTYPE svg PUBLIC "-//W3C//DTD SVG 20010904//EN"
 "http://www.w3.org/TR/2001/REC-SVG-20010904/DTD/svg10.dtd">
<svg version="1.0" xmlns="http://www.w3.org/2000/svg"
 width="594.000000pt" height="132.000000pt" viewBox="0 0 594.000000 132.000000"
 preserveAspectRatio="xMidYMid meet">
<metadata>
Created by potrace 1.10, written by Peter Selinger 2001-2011
</metadata>
<g transform="translate(0.000000,132.000000) scale(0.100000,-0.100000)"
fill="#000000" stroke="none">
<path d="M535 1120 c-119 -6 -154 -16 -199 -58 -51 -49 -66 -100 -66 -232 0
-145 17 -195 79 -234 40 -25 80 -35 240 -57 108 -15 148 -51 105 -93 -13 -13
-46 -16 -202 -16 -140 -1 -191 -4 -204 -14 -15 -11 -18 -30 -18 -109 0 -93 1
-97 24 -103 13 -3 142 -4 287 -2 l264 3 41 27 c81 53 89 72 92 248 2 136 1
159 -16 190 -27 50 -100 86 -203 99 -150 20 -182 28 -196 47 -17 23 -16 35 1
60 13 17 28 19 178 20 89 1 171 2 181 3 15 1 17 13 17 111 0 98 -2 110 -17
110 -10 0 -76 1 -148 3 -71 1 -179 0 -240 -3z"/>
<path d="M1167 1118 c-16 -10 -22 -869 -7 -898 10 -19 19 -20 138 -18 l127 3
3 120 c1 66 7 124 13 130 5 5 76 12 157 16 161 6 194 15 244 73 71 81 78 379
12 482 -55 85 -99 95 -418 97 -142 1 -263 -1 -269 -5z m420 -224 c45 -12 57
-151 17 -195 -15 -17 -28 -19 -93 -17 l-76 3 -3 99 c-2 73 1 102 10 108 15 9
113 11 145 2z"/>
<path d="M2067 1118 c-16 -10 -22 -869 -7 -898 10 -19 21 -20 330 -20 175 0
325 3 334 6 25 9 23 191 -1 210 -14 10 -65 13 -200 14 -206 0 -203 -1 -193 78
l5 47 145 5 145 5 0 100 0 100 -145 5 -145 5 -3 58 c-2 31 -2 58 0 59 2 1 93
4 203 7 l200 6 3 103 c2 83 0 103 -12 108 -22 9 -646 10 -659 2z"/>
<path d="M2937 1121 c-6 -2 -15 -9 -19 -15 -4 -6 -8 -207 -8 -446 0 -326 3
-439 12 -448 13 -13 222 -18 252 -6 14 5 16 35 16 224 0 232 4 252 44 209 32
-36 181 -222 191 -239 6 -8 12 -55 15 -105 l5 -90 128 -3 c98 -2 127 0 127 10
0 7 1 212 2 455 1 244 -2 446 -6 450 -8 8 -223 13 -243 5 -10 -3 -13 -42 -13
-147 0 -86 -4 -146 -10 -150 -19 -12 -45 6 -95 67 -61 75 -118 140 -167 191
l-37 38 -90 2 c-50 1 -97 0 -104 -2z"/>
<path d="M3923 1115 c-19 -14 -20 -894 -1 -907 7 -5 148 -7 313 -5 285 3 302
4 341 24 54 29 101 83 114 134 7 26 10 139 8 322 -3 310 -5 320 -69 377 -56
51 -118 60 -418 63 -171 1 -279 -2 -288 -8z m485 -250 c21 -25 22 -34 22 -202
0 -161 -2 -177 -21 -204 -20 -28 -22 -29 -114 -29 -71 0 -96 3 -102 14 -4 8
-7 111 -5 230 3 248 -9 225 122 220 66 -3 78 -6 98 -29z"/>
<path d="M4883 1122 c-23 -3 -23 -5 -23 -177 0 -145 3 -181 17 -212 10 -21 66
-103 125 -182 l108 -144 0 -84 c0 -125 -3 -123 143 -123 82 0 127 4 135 12 7
7 12 44 12 96 0 46 5 93 12 105 6 12 52 76 101 142 142 188 137 174 137 386 0
179 0 179 -22 180 -114 7 -223 2 -235 -9 -9 -10 -13 -49 -13 -141 0 -118 -2
-132 -25 -175 -14 -27 -32 -55 -40 -63 -8 -8 -15 -18 -15 -23 0 -11 -45 -21
-64 -14 -8 3 -27 27 -42 52 -15 26 -32 50 -38 54 -7 5 -12 63 -14 155 -2 81
-7 152 -12 157 -9 9 -202 15 -247 8z"/>
</g>
</svg>
