<?xml version="1.0" standalone="no"?>
<!DOCTYPE svg PUBLIC "-//W3C//DTD SVG 20010904//EN"
 "http://www.w3.org/TR/2001/REC-SVG-20010904/DTD/svg10.dtd">
<svg version="1.0" xmlns="http://www.w3.org/2000/svg"
 width="600.000000pt" height="600.000000pt" viewBox="0 0 600.000000 600.000000"
 preserveAspectRatio="xMidYMid meet">
<metadata>
Created by potrace 1.10, written by Peter Selinger 2001-2011
</metadata>
<g transform="translate(0.000000,600.000000) scale(0.100000,-0.100000)"
fill="#000000" stroke="none">
<path d="M530 4389 c-118 -8 -174 -42 -211 -127 -28 -63 -27 -261 0 -326 34
-78 77 -96 300 -127 111 -16 149 -50 105 -93 -13 -13 -46 -16 -202 -16 -142
-1 -191 -4 -205 -14 -15 -12 -17 -27 -15 -112 l3 -99 285 0 285 0 41 27 c81
53 89 72 92 248 2 136 1 159 -16 190 -27 50 -100 86 -203 99 -97 13 -190 29
-194 33 -13 13 -14 56 -1 73 13 18 27 20 183 22 92 1 174 2 181 2 9 1 12 30
12 111 0 98 -2 110 -17 111 -112 4 -364 3 -423 -2z"/>
<path d="M1197 4388 c-16 -10 -22 -869 -7 -898 10 -19 19 -20 138 -18 l127 3
3 120 c1 66 7 124 13 130 5 5 76 12 157 16 162 6 193 15 244 73 71 81 78 379
12 482 -55 85 -98 95 -417 97 -143 1 -264 -1 -270 -5z m420 -224 c45 -12 57
-151 17 -195 -15 -17 -28 -19 -93 -17 l-76 3 -3 99 c-2 73 1 102 10 108 15 9
113 11 145 2z"/>
<path d="M2097 4388 c-16 -10 -22 -869 -7 -898 10 -19 21 -20 330 -20 175 0
325 3 334 6 25 9 23 191 -1 210 -14 10 -65 13 -200 14 -206 0 -203 -1 -193 78
l5 47 145 5 145 5 0 100 0 100 -145 5 -145 5 -3 58 c-2 31 -2 58 0 59 2 1 93
4 203 7 l200 6 3 103 c2 77 -1 104 -10 107 -21 8 -649 11 -661 3z"/>
<path d="M2967 4391 c-6 -2 -15 -9 -19 -15 -4 -6 -8 -207 -8 -446 0 -326 3
-439 12 -448 13 -13 222 -18 252 -6 14 5 16 35 16 224 0 232 4 252 44 209 32
-36 181 -222 191 -239 6 -8 12 -55 15 -105 l5 -90 128 -3 c98 -2 127 0 128 10
2 49 -2 902 -5 905 -7 7 -209 14 -232 9 -24 -6 -24 -7 -24 -151 0 -86 -4 -146
-10 -150 -19 -12 -45 6 -95 67 -61 75 -118 140 -167 191 l-38 39 -90 2 c-50 0
-96 -1 -103 -3z"/>
<path d="M3953 4385 c-19 -14 -20 -894 -1 -907 7 -5 148 -7 313 -5 285 3 302
4 341 24 52 28 100 82 114 130 8 25 10 133 8 323 -3 313 -5 323 -69 380 -55
51 -118 60 -418 63 -171 1 -279 -2 -288 -8z m485 -250 c21 -25 22 -34 22 -202
0 -161 -2 -177 -21 -204 -20 -28 -22 -29 -114 -29 -71 0 -96 3 -102 14 -4 8
-7 111 -5 230 3 248 -8 228 122 220 65 -3 78 -7 98 -29z"/>
<path d="M4913 4392 c-23 -3 -23 -5 -23 -177 0 -145 3 -181 17 -212 10 -21 66
-103 125 -182 l108 -144 0 -84 c0 -125 -3 -123 143 -123 82 0 127 4 135 12 7
7 12 44 12 96 0 46 5 93 11 104 6 11 55 79 108 152 54 72 105 146 114 165 14
28 17 65 17 213 0 162 -2 178 -17 179 -157 9 -224 7 -238 -7 -12 -12 -15 -42
-15 -143 0 -118 -2 -132 -25 -175 -14 -27 -32 -55 -40 -63 -8 -8 -15 -18 -15
-23 0 -11 -45 -21 -64 -14 -8 3 -27 27 -42 52 -15 26 -32 50 -38 54 -7 5 -12
63 -14 155 -2 81 -8 153 -13 158 -9 9 -196 15 -246 7z"/>
<path d="M3035 2638 c-16 -29 -34 -63 -38 -75 -5 -13 -13 -23 -18 -23 -5 0 -9
-5 -9 -11 0 -6 -40 -78 -90 -161 -49 -82 -90 -152 -90 -155 0 -3 -22 -42 -50
-88 -70 -115 -67 -132 16 -114 27 5 89 17 138 25 130 21 133 16 81 -166 -7
-25 -20 -71 -29 -103 -9 -31 -23 -82 -32 -112 -8 -30 -13 -59 -9 -64 10 -16
32 -2 45 30 7 16 16 29 21 29 5 0 9 6 9 13 0 7 20 43 45 80 25 37 45 72 45 77
0 4 6 15 13 22 32 33 257 421 257 444 0 28 5 27 -125 3 -201 -37 -199 -38
-192 34 3 29 13 84 22 122 9 39 23 97 30 130 8 33 17 72 21 88 5 22 3 27 -12
27 -12 0 -30 -19 -49 -52z"/>
<path d="M1434 2285 c-3 -8 -3 -18 -1 -22 3 -5 1 -44 -5 -86 -7 -53 -7 -82 0
-90 6 -7 32 -11 64 -11 78 2 78 2 78 23 0 16 -6 18 -38 14 -50 -7 -74 17 -41
41 18 12 20 18 10 30 -7 8 -11 25 -9 38 2 19 10 24 40 26 25 2 41 10 48 23 6
10 7 19 3 19 -4 0 -39 2 -76 5 -52 3 -69 1 -73 -10z"/>
<path d="M1672 2290 c-12 -5 -27 -21 -34 -35 -16 -36 2 -69 51 -91 23 -10 41
-24 41 -31 0 -21 -51 -28 -81 -10 -21 12 -29 12 -32 3 -10 -25 32 -56 76 -56
39 0 95 28 102 51 9 28 -23 71 -63 84 -42 14 -46 20 -32 44 10 20 12 20 35 5
28 -18 85 -11 85 11 0 31 -93 47 -148 25z"/>
<path d="M1849 2279 c-9 -17 -6 -21 21 -31 29 -10 31 -13 25 -47 -15 -95 -5
-141 29 -128 11 5 16 20 16 53 0 71 19 114 52 121 27 5 30 8 32 34 1 7 -30 12
-82 14 -73 3 -83 1 -93 -16z"/>
<path d="M3922 2293 c-22 -4 -49 -39 -38 -50 3 -4 18 -1 32 6 28 13 54 1 54
-25 0 -24 -61 -84 -85 -84 -28 0 -43 -34 -24 -56 9 -11 15 -11 25 -3 13 11 33
9 95 -6 18 -5 31 -1 42 10 25 24 21 33 -15 37 -43 4 -45 20 -9 61 32 36 40 77
19 94 -16 13 -66 21 -96 16z"/>
<path d="M4191 2293 c-40 -8 -80 -52 -86 -97 -9 -56 7 -93 49 -113 33 -15 38
-15 74 1 42 19 72 69 72 120 0 27 -57 98 -76 95 -5 -1 -20 -4 -33 -6z m47 -55
c18 -18 14 -67 -9 -99 -35 -50 -79 -33 -79 31 0 63 52 104 88 68z"/>
<path d="M4593 2284 c-20 -10 -33 -24 -33 -35 0 -23 0 -23 36 -4 32 16 54 5
54 -27 0 -25 -53 -78 -78 -78 -25 0 -46 -25 -38 -46 5 -13 14 -15 42 -9 22 4
48 1 66 -6 37 -15 78 1 78 31 0 17 -5 19 -24 14 -36 -9 -47 2 -34 31 6 14 15
25 19 25 4 0 15 14 23 32 15 28 15 34 1 55 -9 12 -21 23 -28 23 -6 0 -21 2
-32 5 -11 3 -35 -2 -52 -11z"/>
<path d="M4415 2281 c-3 -5 -19 -13 -36 -16 l-31 -7 29 -30 c24 -26 28 -36 25
-79 -4 -51 8 -79 34 -79 9 0 14 13 14 38 1 34 5 59 25 150 7 31 6 32 -23 32
-17 0 -33 -4 -37 -9z"/>
<path d="M2062 2118 c-7 -7 -8 -17 -1 -29 8 -16 13 -17 29 -6 24 14 26 33 4
41 -20 8 -18 8 -32 -6z"/>
</g>
</svg>
